<svg xmlns="http://www.w3.org/2000/svg" xmlns:xlink="http://www.w3.org/1999/xlink" viewBox="0 0 225.86 66"><defs><clipPath id="clip-path"><polygon points="49.23 21.07 49.23 44.92 57.16 49.5 57.16 16.5 49.23 21.07" fill="none"/></clipPath><linearGradient id="linear-gradient" x1="-12.57" y1="83.33" x2="-11.57" y2="83.33" gradientTransform="matrix(0, -33, -33, 0, 2803.28, -365.4)" gradientUnits="userSpaceOnUse"><stop offset="0" stop-color="#ffdb00"/><stop offset="1" stop-color="#ed732c"/></linearGradient><clipPath id="clip-path-2"><polygon points="7.92 44.93 0 49.5 28.58 66 28.58 56.85 7.92 44.93" fill="none"/></clipPath><linearGradient id="linear-gradient-2" x1="-12.57" y1="83.33" x2="-11.57" y2="83.33" gradientTransform="matrix(0, -33, -33, 0, 2764.38, -348.9)" xlink:href="#linear-gradient"/><clipPath id="clip-path-3"><polygon points="49.23 44.92 28.58 56.85 28.58 66 57.16 49.5 49.23 44.92" fill="none"/></clipPath><linearGradient id="linear-gradient-3" x1="-12.57" y1="83.33" x2="-11.57" y2="83.33" gradientTransform="matrix(0, 33, 33, 0, -2707.21, 459.82)" xlink:href="#linear-gradient"/><clipPath id="clip-path-4"><polygon points="7.93 21.07 7.93 21.07 0.02 16.5 0 49.5 7.92 44.93 7.93 21.07" fill="none"/></clipPath><linearGradient id="linear-gradient-4" x1="-12.57" y1="83.33" x2="-11.57" y2="83.33" gradientTransform="matrix(0, -33, -33, 0, 2753.97, -365.39)" xlink:href="#linear-gradient"/><clipPath id="clip-path-5"><polygon points="28.58 0 28.58 9.15 49.23 21.07 57.16 16.5 28.58 0" fill="none"/></clipPath><linearGradient id="linear-gradient-5" x1="-12.57" y1="83.33" x2="-11.57" y2="83.33" gradientTransform="matrix(0, 33, 33, 0, -2706.74, 402.91)" xlink:href="#linear-gradient"/><clipPath id="clip-path-6"><polygon points="28.58 0 0.02 16.5 7.93 21.07 28.58 9.15 28.58 0" fill="none"/></clipPath><linearGradient id="linear-gradient-6" x1="-12.57" y1="83.33" x2="-11.57" y2="83.33" gradientTransform="matrix(0, -33, -33, 0, 2763.85, -381.83)" xlink:href="#linear-gradient"/><clipPath id="clip-path-7"><polygon points="14.65 24.96 7.93 21.07 7.92 44.93 14.65 41.04 14.65 24.96" fill="none"/></clipPath><linearGradient id="linear-gradient-7" x1="-12.57" y1="83.33" x2="-11.57" y2="83.33" gradientTransform="matrix(0, -23.85, -23.85, 0, 1998.81, -254.93)" gradientUnits="userSpaceOnUse"><stop offset="0" stop-color="#3c3c3b"/><stop offset="0.1" stop-color="#4b4b4a"/><stop offset="0.32" stop-color="#656565"/><stop offset="0.54" stop-color="#787878"/><stop offset="0.76" stop-color="#838383"/><stop offset="1" stop-color="#878787"/></linearGradient><clipPath id="clip-path-8"><polygon points="7.93 21.07 14.65 24.96 28.58 16.91 28.58 9.15 7.93 21.07" fill="none"/></clipPath><linearGradient id="linear-gradient-8" x1="-12.57" y1="83.33" x2="-11.57" y2="83.33" gradientTransform="matrix(0, -23.86, -23.86, 0, 2006.19, -266.91)" xlink:href="#linear-gradient-7"/><clipPath id="clip-path-9"><polygon points="42.5 24.96 49.23 21.07 28.58 9.15 28.58 9.15 28.58 16.91 42.5 24.96" fill="none"/></clipPath><linearGradient id="linear-gradient-9" x1="-12.57" y1="83.33" x2="-11.57" y2="83.33" gradientTransform="matrix(0, 23.86, 23.86, 0, -1949.04, 301.02)" xlink:href="#linear-gradient-7"/><clipPath id="clip-path-10"><polygon points="14.65 41.04 7.92 44.93 28.58 56.85 28.58 49.08 14.65 41.04" fill="none"/></clipPath><linearGradient id="linear-gradient-10" x1="-12.57" y1="83.33" x2="-11.57" y2="83.33" gradientTransform="matrix(0, -23.85, -23.85, 0, 2006.02, -243.04)" xlink:href="#linear-gradient-7"/><clipPath id="clip-path-11"><polygon points="42.5 41.04 28.58 49.08 28.58 56.85 49.23 44.92 42.5 41.04" fill="none"/></clipPath><linearGradient id="linear-gradient-11" x1="-12.57" y1="83.33" x2="-11.57" y2="83.33" gradientTransform="matrix(0, 23.85, 23.85, 0, -1948.87, 340.93)" xlink:href="#linear-gradient-7"/><clipPath id="clip-path-12"><polygon points="42.5 41.04 49.23 44.92 49.23 21.07 42.5 24.96 42.5 41.04" fill="none"/></clipPath><linearGradient id="linear-gradient-12" x1="-12.57" y1="83.33" x2="-11.57" y2="83.33" gradientTransform="matrix(0, -23.85, -23.85, 0, 2033.2, -254.9)" xlink:href="#linear-gradient-7"/><clipPath id="clip-path-13"><polygon points="42.5 41.04 42.5 24.96 28.58 33 42.5 41.04" fill="none"/></clipPath><linearGradient id="linear-gradient-13" x1="-12.57" y1="83.33" x2="-11.57" y2="83.33" gradientTransform="matrix(0, -16.08, -16.08, 0, 1375.71, -161.15)" gradientUnits="userSpaceOnUse"><stop offset="0" stop-color="#ffe996"/><stop offset="1" stop-color="#e5c500"/></linearGradient><clipPath id="clip-path-14"><polygon points="14.65 24.96 14.65 41.04 28.58 33 14.65 24.96" fill="none"/></clipPath><linearGradient id="linear-gradient-14" x1="-12.57" y1="83.33" x2="-11.57" y2="83.33" gradientTransform="matrix(0, -16.08, -16.08, 0, 1361.99, -161.18)" xlink:href="#linear-gradient-13"/><clipPath id="clip-path-15"><polygon points="14.65 41.04 28.58 49.08 28.58 33 14.65 41.04" fill="none"/></clipPath><linearGradient id="linear-gradient-15" x1="-12.57" y1="83.33" x2="-11.57" y2="83.33" gradientTransform="matrix(0, -16.08, -16.08, 0, 1361.58, -153.08)" xlink:href="#linear-gradient-13"/><clipPath id="clip-path-16"><polygon points="28.58 33 28.58 49.08 42.5 41.04 28.58 33" fill="none"/></clipPath><linearGradient id="linear-gradient-16" x1="-12.57" y1="83.33" x2="-11.57" y2="83.33" gradientTransform="matrix(0, 16.08, 16.08, 0, -1304.43, 235.16)" xlink:href="#linear-gradient-13"/><clipPath id="clip-path-17"><polygon points="14.65 24.96 28.58 33 28.58 16.91 14.65 24.96" fill="none"/></clipPath><linearGradient id="linear-gradient-17" x1="-12.57" y1="83.33" x2="-11.57" y2="83.33" gradientTransform="matrix(0, -16.09, -16.09, 0, 1362.48, -169.29)" xlink:href="#linear-gradient-13"/><clipPath id="clip-path-18"><polygon points="28.58 16.91 28.58 16.91 28.58 33 42.5 24.96 28.58 16.91" fill="none"/></clipPath><linearGradient id="linear-gradient-18" x1="-12.57" y1="83.33" x2="-11.57" y2="83.33" gradientTransform="matrix(0, 16.09, 16.09, 0, -1305.61, 219.24)" xlink:href="#linear-gradient-13"/><clipPath id="clip-path-19"><path d="M93.28,20.27v12.6a3.42,3.42,0,0,0,3.61,3.61h16.23s.44-.1.44.5V42.5a.65.65,0,0,1-.64.71H93.78a.49.49,0,0,0-.5.5v5.85h23.56c3.68,0,3.29-3.29,3.29-3.29V33.52a3.1,3.1,0,0,0-3.26-3.26H99.71V22.83h18.06l2.31-6.4H97.25a3.71,3.71,0,0,0-4,3.84" fill="none"/></clipPath><linearGradient id="linear-gradient-19" x1="-12.57" y1="83.33" x2="-11.57" y2="83.33" gradientTransform="matrix(0, -33.13, -33.13, 0, 2867.19, -366.91)" gradientUnits="userSpaceOnUse"><stop offset="0" stop-color="#1d1d1b"/><stop offset="0.23" stop-color="#363634"/><stop offset="0.48" stop-color="#484847"/><stop offset="0.73" stop-color="#535352"/><stop offset="1" stop-color="#575756"/></linearGradient><clipPath id="clip-path-20"><path d="M140.62,16.43,135.4,30h-4.21V16.45h-6.26c-.5,0-.47.53-.47.53V49.57h6.73v-13h10.34l5.18,13h6.92s-4.38-11.28-6.08-15.4a6.55,6.55,0,0,0-5.42-3.91l4.62-13.83Z" fill="none"/></clipPath><linearGradient id="linear-gradient-20" x1="-12.57" y1="83.33" x2="-11.57" y2="83.33" gradientTransform="matrix(0, -33.15, -33.15, 0, 2901.25, -367.16)" xlink:href="#linear-gradient-19"/><clipPath id="clip-path-21"><path d="M219.67,16.41a.55.55,0,0,0-.54.51V49.57h6.73V16.41Z" fill="none"/></clipPath><linearGradient id="linear-gradient-21" x1="-12.57" y1="83.33" x2="-11.57" y2="83.33" gradientTransform="matrix(0, -33.16, -33.16, 0, 2985.6, -367.29)" xlink:href="#linear-gradient-19"/><clipPath id="clip-path-22"><path d="M68.14,23.37s0-.54.55-.54h13.2V43.51H68.14Zm16.6-6.95H65.08A3.38,3.38,0,0,0,61.56,20v26.1A3.2,3.2,0,0,0,65,49.58H85.75a3,3,0,0,0,3.09-3.09v-26a3.82,3.82,0,0,0-4-4.1h-.08" fill="none"/></clipPath><linearGradient id="linear-gradient-22" x1="-12.57" y1="83.33" x2="-11.57" y2="83.33" gradientTransform="matrix(0, -33.17, -33.17, 0, 2838.98, -367.38)" xlink:href="#linear-gradient-19"/><clipPath id="clip-path-23"><path d="M163,23.37a.58.58,0,0,1,.56-.54H176.7V34.27H163Zm16.3-6.95h-19a3.76,3.76,0,0,0-3.87,4V49.57h6.78V41.39a.49.49,0,0,1,.53-.56h13.12v8.74h6.42V20.15a3.59,3.59,0,0,0-3.85-3.74h-.11" fill="none"/></clipPath><linearGradient id="linear-gradient-23" x1="-12.57" y1="83.33" x2="-11.57" y2="83.33" gradientTransform="matrix(0, -33.16, -33.16, 0, 2932.9, -367.29)" xlink:href="#linear-gradient-19"/><clipPath id="clip-path-24"><path d="M194.31,23.45a.57.57,0,0,1,.55-.54h13.2v7.23H194.31Zm16.22-7H192.11a4.36,4.36,0,0,0-4.41,4.64v28.5h6.62v-13h8l5.45,13h6.92l-5.34-13h1.7A3.43,3.43,0,0,0,214.7,33V20.37a3.73,3.73,0,0,0-4-3.94h-.16" fill="none"/></clipPath><linearGradient id="linear-gradient-24" x1="-12.57" y1="83.33" x2="-11.57" y2="83.33" gradientTransform="matrix(0, -33.14, -33.14, 0, 2963.16, -367.12)" xlink:href="#linear-gradient-19"/></defs><title>oskari_rgb</title><g id="Layer_2" data-name="Layer 2"><g id="Layer_1-2" data-name="Layer 1"><g clip-path="url(#clip-path)"><rect x="49.23" y="16.5" width="7.93" height="33" fill="url(#linear-gradient)"/></g><g clip-path="url(#clip-path-2)"><rect y="44.93" width="28.58" height="21.07" fill="url(#linear-gradient-2)"/></g><g clip-path="url(#clip-path-3)"><rect x="28.58" y="44.92" width="28.58" height="21.07" fill="url(#linear-gradient-3)"/></g><g clip-path="url(#clip-path-4)"><rect y="16.5" width="7.93" height="33" fill="url(#linear-gradient-4)"/></g><g clip-path="url(#clip-path-5)"><rect x="28.58" width="28.58" height="21.07" fill="url(#linear-gradient-5)"/></g><g clip-path="url(#clip-path-6)"><rect x="0.02" width="28.56" height="21.08" fill="url(#linear-gradient-6)"/></g><g clip-path="url(#clip-path-7)"><rect x="7.92" y="21.08" width="6.73" height="23.85" fill="url(#linear-gradient-7)"/></g><g clip-path="url(#clip-path-8)"><rect x="7.93" y="9.15" width="20.65" height="15.81" fill="url(#linear-gradient-8)"/></g><g clip-path="url(#clip-path-9)"><rect x="28.58" y="9.15" width="20.65" height="15.81" fill="url(#linear-gradient-9)"/></g><g clip-path="url(#clip-path-10)"><rect x="7.92" y="41.04" width="20.66" height="15.81" fill="url(#linear-gradient-10)"/></g><g clip-path="url(#clip-path-11)"><rect x="28.58" y="41.04" width="20.66" height="15.81" fill="url(#linear-gradient-11)"/></g><g clip-path="url(#clip-path-12)"><rect x="42.5" y="21.08" width="6.73" height="23.85" fill="url(#linear-gradient-12)"/></g><g clip-path="url(#clip-path-13)"><rect x="28.58" y="24.96" width="13.93" height="16.08" fill="url(#linear-gradient-13)"/></g><g clip-path="url(#clip-path-14)"><rect x="14.65" y="24.96" width="13.93" height="16.08" fill="url(#linear-gradient-14)"/></g><g clip-path="url(#clip-path-15)"><rect x="14.65" y="33" width="13.93" height="16.08" fill="url(#linear-gradient-15)"/></g><g clip-path="url(#clip-path-16)"><rect x="28.58" y="33" width="13.93" height="16.08" fill="url(#linear-gradient-16)"/></g><g clip-path="url(#clip-path-17)"><rect x="14.65" y="16.91" width="13.93" height="16.09" fill="url(#linear-gradient-17)"/></g><g clip-path="url(#clip-path-18)"><rect x="28.58" y="16.9" width="13.93" height="16.09" fill="url(#linear-gradient-18)"/></g><g clip-path="url(#clip-path-19)"><rect x="93.28" y="16.43" width="27.24" height="33.13" fill="url(#linear-gradient-19)"/></g><g clip-path="url(#clip-path-20)"><rect x="124.43" y="16.43" width="29.2" height="33.15" fill="url(#linear-gradient-20)"/></g><g clip-path="url(#clip-path-21)"><rect x="219.13" y="16.41" width="6.73" height="33.16" fill="url(#linear-gradient-21)"/></g><g clip-path="url(#clip-path-22)"><rect x="61.56" y="16.3" width="27.28" height="33.53" fill="url(#linear-gradient-22)"/></g><g clip-path="url(#clip-path-23)"><rect x="156.36" y="16.34" width="26.85" height="33.23" fill="url(#linear-gradient-23)"/></g><g clip-path="url(#clip-path-24)"><rect x="187.7" y="16.39" width="27.03" height="33.18" fill="url(#linear-gradient-24)"/></g></g></g></svg>