<svg xmlns="http://www.w3.org/2000/svg" viewBox="0 0 388.91 110.64"><title>Asset 1</title><g id="Layer_2" data-name="Layer 2"><g id="Layer_1-2" data-name="Layer 1"><polygon points="86.34 73.91 98.4 80.91 98.4 29.81 86.34 36.79 86.34 73.91" fill="#fff"/><polygon points="83.71 32.34 95.75 25.37 51.78 0 51.78 13.91 83.71 32.34" fill="#fff"/><polygon points="46.62 13.91 46.62 0 2.72 25.34 14.74 32.32 46.62 13.91" fill="#fff"/><polygon points="83.66 78.32 51.78 96.72 51.78 110.63 95.67 85.3 83.66 78.32" fill="#fff"/><polygon points="14.69 78.29 2.65 85.26 46.62 110.64 46.62 96.72 14.69 78.29" fill="#fff"/><polygon points="12.05 36.73 0 29.73 0 80.83 12.05 73.85 12.05 36.73" fill="#fff"/><polygon points="22.65 42.88 22.65 67.71 44.05 55.31 22.65 42.88" fill="#fff"/><polygon points="25.27 72.16 46.62 84.48 46.62 59.8 25.27 72.16" fill="#fff"/><polygon points="54.34 55.32 75.75 67.75 75.75 42.93 54.34 55.32" fill="#fff"/><polygon points="51.78 84.48 73.09 72.18 51.78 59.8 51.78 84.48" fill="#fff"/><polygon points="46.62 26.15 25.31 38.46 46.62 50.83 46.62 26.15" fill="#fff"/><polygon points="73.12 38.48 51.78 26.16 51.78 50.84 73.12 38.48" fill="#fff"/><path d="M206.82,26.8l-4,11h-31.1V50.6h29.55c5.83,0,5.61,5.61,5.61,5.61V78.16s.67,5.66-5.65,5.66H160.68V73.75a.84.84,0,0,1,.86-.86h33a1.11,1.11,0,0,0,1.09-1.21V62.17c0-1-.74-.86-.74-.86H166.9s-6.22.27-6.22-6.22V33.41c0-7,7-6.61,7-6.61Z" fill="#fff"/><path d="M242.18,26.79l-9,23.29h-7.26V26.83H215.17c-.86,0-.8.92-.8.92v56.1h11.57V61.48h17.8l8.92,22.37h11.92S257,64.42,254.1,57.34a11.25,11.25,0,0,0-9.33-6.74l7.95-23.81Z" fill="#fff"/><path d="M377.34,83.85h11.57V26.77H378.26a.91.91,0,0,0-.92.86Z" fill="#fff"/><path d="M112.12,26.77H146s7.06-.35,7.06,7.07V78.55c0,5.31-5.31,5.31-5.31,5.31H112a5.51,5.51,0,0,1-6-6V33c0-6.39,6-6.2,6-6.2m5.28,46.64h23.67V37.81H118.34c-.86,0-.94.92-.94.92Z" fill="#fff"/><path d="M308.68,26.77s6.82-.37,6.82,6.43V83.85H304.44v-15H281.87a.86.86,0,0,0-.93,1V83.85H269.28V33.62c0-7,6.65-6.85,6.65-6.85ZM280.63,57.51H304.3V37.81H281.57c-.86,0-.94.92-.94.92Z" fill="#fff"/><path d="M362.53,26.8s7.17-.48,7.17,6.78V55.24c0,6.45-6.22,6.22-6.22,6.22h-2.93l9.2,22.39H357.83l-9.38-22.39H334.63V83.85H323.22V34.79c0-8.06,7.61-8,7.61-8ZM334.6,50.4h23.67V38H335.55a1,1,0,0,0-.95.92Z" fill="#fff"/></g></g></svg>