<?xml version="1.0" encoding="utf-8"?>
<!-- Generator: Adobe Illustrator 24.1.2, SVG Export Plug-In . SVG Version: 6.00 Build 0)  -->
<svg version="1.1" id="Lager_1" xmlns="http://www.w3.org/2000/svg" xmlns:xlink="http://www.w3.org/1999/xlink" x="0px" y="0px"
	 viewBox="0 0 219.3 200" style="enable-background:new 0 0 219.3 200;" xml:space="preserve">
<style type="text/css">
	.st0{fill:#00549A;}
	.st1{fill:#FFFFFF;}
</style>
<rect class="st0" width="219.3" height="200"/>
<g>
	<g>
		<path class="st1" d="M31.4,139.9v1.3c0,0.3,0,0.5-0.3,0.5c0,0-0.3,0-0.5-0.3h-0.3c-1.3-0.8-2.5-1-4.3-1c-4.8,0-7.5,3-7.5,8.3
			c0,4.8,2.8,7.5,7.3,7.5c1.8,0,3.8-0.5,4.8-1.3c0.3,0,0.3-0.3,0.3-0.3c0.3,0,0.3,0.3,0.3,0.5v1.3c0,1-2.5,1.8-5.5,1.8
			c-6.3,0-10.1-3.5-10.1-9.8c0-6.3,4-10.3,10.3-10.3C29.1,138.2,31.4,138.9,31.4,139.9z"/>
		<path class="st1" d="M40.2,150.3l-6.5-11.1v-0.3c0-0.3,0-0.3,0.3-0.3h2.5c0.3,0,0.3,0,0.3,0.3l5,9l5.3-9l0.3-0.3H49
			c0.3,0,0.5,0.3,0.5,0.5v0.3l-6.3,10.8v7.8c0,0.3-0.3,0.5-0.5,0.5h-2.3c-0.3,0-0.5-0.3-0.5-0.5v-7.8H40.2z"/>
		<path class="st1" d="M60.1,147.5c1.8,0.5,2.5,1,3.3,1.8c0.8,1,1.3,2,1.3,3.3c0,3.5-2.5,5.5-6.5,5.5h-6c-0.3,0-0.5-0.3-0.5-0.5
			v-18.8c0-0.3,0.3-0.5,0.5-0.5h5.8c3.8,0,5.8,1.8,5.8,4.8C63.3,145.7,62.3,147,60.1,147.5z M54.3,156h3c2.8,0,4-1.3,4-3.8
			s-1.5-3.8-4.3-3.8h-2.8V156z M54.3,146.7h2.3c2.5,0,3.8-1,3.8-3.3c0-2-1.3-3.3-3-3.3h-2.8v6.5H54.3z"/>
		<path class="st1" d="M70.4,140.7v5.8h6c0.3,0,0.5,0.3,0.5,0.5v1.3c0,0.3-0.3,0.5-0.5,0.5h-6v7h8c0.3,0,0.5,0.3,0.5,0.5v1.5
			c0,0.3-0.3,0.5-0.5,0.5H67.6c-0.3,0-0.5-0.3-0.5-0.5v-18.8c0-0.3,0.3-0.5,0.5-0.5h10.1c0.3,0,0.5,0.3,0.5,0.5v1.5
			c0,0.3-0.3,0.5-0.5,0.5h-7.3V140.7z"/>
		<path class="st1" d="M84.9,149v8.8c0,0.3-0.3,0.5-0.5,0.5h-2.3c-0.3,0-0.5-0.3-0.5-0.5v-18.8c0-0.3,0.3-0.5,0.5-0.5h6
			c2.3,0,3.5,0.5,4.3,1.8c0.8,1,1,2,1,3.3c0,3-2,4.8-5.3,5l6.8,8.8c0,0,0,0.3,0.3,0.3c0,0,0,0,0,0.3S95,158,94.7,158H92
			c0,0-0.3,0-0.3-0.3l-6.3-8.5C85.2,149,85.2,149,84.9,149C84.9,149,84.9,149,84.9,149z M84.9,147h2c2.5,0,3.8-1,3.8-3.3
			c0-2-1.3-3.3-3.3-3.3h-2.8v6.5H84.9z"/>
		<path class="st1" d="M112.1,139.9v1.3c0,0.3,0,0.5-0.3,0.5c0,0-0.3,0-0.5-0.3h-0.3c-1.3-0.8-2.5-1-4.3-1c-4.8,0-7.5,3-7.5,8.3
			c0,4.8,2.8,7.5,7.3,7.5c1.8,0,3.8-0.5,4.8-1.3c0.3,0,0.3-0.3,0.3-0.3c0.3,0,0.3,0.3,0.3,0.5v1.3c0,1-2.5,1.8-5.5,1.8
			c-6.3,0-10.1-3.5-10.1-9.8c0-6.3,4-10.3,10.3-10.3C109.5,138.2,112.1,138.9,112.1,139.9z"/>
		<path class="st1" d="M114.3,148.5c0-3.3,0.8-5.5,2-7.3c1.8-2,3.8-2.8,7-2.8c6,0,9.3,3.5,9.3,10.1s-3.3,10.3-9,10.3
			c-3.5,0-5.8-0.8-7.3-3C114.8,153.8,114.3,151.8,114.3,148.5z M117.3,148.5c0,2.5,0.5,4.3,1.5,5.5c1.3,1.5,2.8,2.3,4.8,2.3
			c4,0,6.3-3,6.3-8s-2.3-8-6.3-8c-2,0-3.8,0.8-4.8,2.3C117.8,144.2,117.3,145.7,117.3,148.5z"/>
		<path class="st1" d="M137.7,142.2v15.3c0,0.3-0.3,0.5-0.5,0.5h-1.5c-0.3,0-0.5-0.3-0.5-0.5v-18.8c0-0.3,0.3-0.5,0.5-0.5h2.8
			c0.5,0,0.5,0.3,0.8,0.5L145,155l5.5-16.1c0.3-0.8,0.5-0.8,1-0.8h2.8c0.3,0,0.5,0.3,0.5,0.5v18.8c0,0.3-0.3,0.5-0.5,0.5h-2
			c-0.3,0-0.5-0.3-0.5-0.5V142l-5,14.1c-0.5,1.5-0.8,1.8-1.5,1.8h-1.8c-0.8,0-0.8-0.3-1.3-1.3l-3.8-10.8l-0.3-1v-1
			C138.2,143.2,137.9,143,137.7,142.2z"/>
	</g>
	<g>
		<path class="st1" d="M81.2,174.9h2.3c0.3,0,0.5,0.3,0.5,0.5v6.8c0,1-2.5,1.8-6,1.8c-6.3,0-10.1-3.8-10.1-9.8
			c0-6.5,4-10.3,10.6-10.3c3,0,5.5,0.8,5.5,1.8v1.3c0,0.5,0,0.5-0.3,0.5c0,0-0.5,0-0.8-0.3c-1-0.5-2.8-1-4.3-1
			c-4.5,0-7.5,3.3-7.5,8.3c0,4.8,2.8,7.5,7.3,7.5c2,0,2.8-0.3,2.8-1v-5.5C80.9,175.1,80.9,174.9,81.2,174.9z"/>
		<path class="st1" d="M90.7,174.9v8.5c0,0.3-0.3,0.5-0.5,0.5h-2.3c-0.3,0-0.5-0.3-0.5-0.5v-18.8c0-0.3,0.3-0.5,0.5-0.5h6
			c2.3,0,3.5,0.5,4.3,1.8c0.8,1,1,2,1,3.3c0,3-2,4.8-5.3,5l6.8,8.8c0,0,0,0.3,0.3,0.3c0,0,0,0,0,0.3s-0.3,0.3-0.5,0.3h-2.8
			c0,0-0.3,0-0.3-0.3l-6.3-8.5c-0.3-0.3-0.3-0.3-0.5-0.3h0V174.9z M90.7,172.9h2c2.5,0,3.8-1,3.8-3.3c0-2-1.3-3.3-3.3-3.3h-2.8v6.5
			H90.7z"/>
		<path class="st1" d="M102.8,174.1c0-3.3,0.8-5.5,2-7.3c1.8-2,3.8-2.8,7-2.8c6,0,9.3,3.5,9.3,10.1c0,6.5-3.3,10.3-9,10.3
			c-3.5,0-5.8-0.8-7.3-3C103.3,179.6,102.8,177.4,102.8,174.1z M105.8,174.1c0,2.5,0.5,4.3,1.5,5.5c1.3,1.5,2.8,2.3,4.8,2.3
			c4,0,6.3-3,6.3-8c0-5-2.3-8-6.3-8c-2,0-3.8,0.8-4.8,2.3C106.3,169.8,105.8,171.6,105.8,174.1z"/>
		<path class="st1" d="M137.2,164.1h1.5c0.3,0,0.5,0.3,0.5,0.5v13.3c0,4-2.8,6.3-7.3,6.3c-4.8,0-7.5-2.3-7.5-6.3v-13.6
			c0-0.3,0.3-0.5,0.5-0.5h2.3c0.3,0,0.5,0.3,0.5,0.5v13.1c0,2.8,1.5,4.3,4.8,4.3c3.3,0,4.8-1.5,4.8-4.3v-13.1
			C136.7,164.3,136.9,164.1,137.2,164.1z"/>
		<path class="st1" d="M145.5,175.9v7.5c0,0.3-0.3,0.5-0.5,0.5h-2.3c-0.3,0-0.5-0.3-0.5-0.5v-18.8c0-0.3,0.3-0.5,0.5-0.5h5.5
			c4,0,6.3,2.3,6.3,5.5c0,2.3-0.5,3.5-1.8,4.5c-1.3,1-2.8,1.5-5,1.5h-2.3V175.9z M145.5,173.9h2c2.8,0,4-1.3,4-3.8
			c0-2.3-1.5-3.8-4-3.8h-2.3v7.5H145.5z"/>
	</g>
	<g>
		<path class="st1" d="M191.5,138.2h-20.4l-9.5,46h4c0,0,8.8-27.6,10.1-31.7C178.6,141.7,191.5,138.2,191.5,138.2z"/>
		<path class="st1" d="M193.7,184.2c0,0-4.3-21.6-4.8-27.1c-0.3-5.3,0-7.8,3.3-11.3c3-3.3,17.1-7.5,17.1-7.5h-5.8
			c-0.3,0-17.8,3.8-19.1,16.1c-0.3,3-1,6.3-1.8,9.5l7,20.6h4V184.2z"/>
		<path class="st1" d="M195.2,138.2c-0.3,0-14.3,4-17.6,14.3c-0.5,1.5-1.8,5.5-3.3,10.6l-4.3,21.1h4c0,0,7-16.6,8.5-29.9
			c1.3-12.3,17.1-16.1,17.1-16.1H195.2z"/>
		<path class="st1" d="M172.1,132.2c0-2.5,2-4.5,4.5-4.5s4.5,2,4.5,4.5c0,2.5-2,4.5-4.5,4.5C174.1,136.7,172.1,134.7,172.1,132.2z"
			/>
		<path class="st1" d="M185.2,127.6c-1,0-2,0.5-2.8,1c0.8,1,1.3,2.3,1.3,3.5s-0.5,2.5-1.3,3.5c0.8,0.8,1.8,1,2.8,1
			c2.5,0,4.5-2,4.5-4.5C189.7,129.6,187.7,127.6,185.2,127.6z"/>
		<path class="st1" d="M193.2,127.6c-1,0-2,0.3-2.8,1c0.8,1,1.3,2.3,1.3,3.5s-0.5,2.5-1.3,3.5c0.8,0.8,1.8,1,3,1
			c2.5,0,4.5-2,4.5-4.5C198,129.6,195.7,127.6,193.2,127.6z"/>
	</g>
</g>
</svg>
